<svg xmlns="http://www.w3.org/2000/svg" width="32" height="32" viewBox="0 0 32 32" role="img" aria-label="Lugares">
  <!-- Favicon "Lugar + gente": gota de pin en azul pizarra de marca con dos
       siluetas que se tocan dentro (compartir con los tuyos). Color sólido,
       sin degradados (sistema Atelier). Las siluetas van caladas en papel para
       que el símbolo lea al tamaño de una pestaña. -->
  <path
    fill="#34506b"
    d="M16 2.5c-7.1 0-12.6 5.4-12.6 12.1 0 8.4 11 21.4 12 22.7a.78.78 0 0 0 1.2 0c1-1.3 12-14.3 12-22.7C28.6 7.9 23.1 2.5 16 2.5Z"
  />
  <g fill="#f6f7f9">
    <circle cx="12.4" cy="12" r="2.7" />
    <path d="M7.4 22.2c0-2.8 2.2-5 5-5s5 2.2 5 5a.7.7 0 0 1-.7.7H8.1a.7.7 0 0 1-.7-.7Z" />
    <circle cx="19.6" cy="12" r="2.7" />
    <path d="M14.6 22.2c0-2.8 2.2-5 5-5s5 2.2 5 5a.7.7 0 0 1-.7.7h-8.6a.7.7 0 0 1-.7-.7Z" />
  </g>
</svg>
